<svg width="97" height="16" viewBox="0 0 97 16" fill="none" xmlns="http://www.w3.org/2000/svg">
<path d="M96.7071 8.70711C97.0976 8.31658 97.0976 7.68342 96.7071 7.29289L90.3431 0.928932C89.9526 0.538408 89.3195 0.538408 88.9289 0.928932C88.5384 1.31946 88.5384 1.95262 88.9289 2.34315L94.5858 8L88.9289 13.6569C88.5384 14.0474 88.5384 14.6805 88.9289 15.0711C89.3195 15.4616 89.9526 15.4616 90.3431 15.0711L96.7071 8.70711ZM0 9H2V7H0V9ZM6 9H10V7H6V9ZM14 9H18V7H14V9ZM22 9H26V7H22V9ZM30 9H34V7H30V9ZM38 9H42V7H38V9ZM46 9H50V7H46V9ZM54 9H58V7H54V9ZM62 9H66V7H62V9ZM70 9H74V7H70V9ZM78 9H82V7H78V9ZM86 9H90V7H86V9ZM94 9H96V7H94V9Z" fill="url(#paint0_linear_1099_21749)"/>
<defs>
<linearGradient id="paint0_linear_1099_21749" x1="0" y1="8" x2="62.5" y2="8" gradientUnits="userSpaceOnUse">
<stop stop-color="white"/>
<stop offset="1" stop-color="#7685F7"/>
</linearGradient>
</defs>
</svg>
