<svg
  xmlns="http://www.w3.org/2000/svg"
  width="9"
  height="10"
  viewBox="0 0 9 10"
  fill="none"
>
  <path
    fillRule="evenodd"
    clipRule="evenodd"
    d="M0.853542 0.895794C0.658273 0.700538 0.34169 0.700549 0.146435 0.895818C-0.0488208 1.09109 -0.0488103 1.40767 0.146458 1.60292L3.54387 5.00011L0.146459 8.39729C-0.0488099 8.59255 -0.0488205 8.90913 0.146435 9.1044C0.341691 9.29967 0.658273 9.29968 0.853542 9.10442L4.251 5.70719L7.64819 9.10416C7.84346 9.29942 8.16005 9.29941 8.3553 9.10414C8.55056 8.90887 8.55055 8.59229 8.35528 8.39703L4.95813 5.00011L8.35528 1.60318C8.55055 1.40793 8.55056 1.09135 8.3553 0.896077C8.16005 0.700808 7.84346 0.700798 7.64819 0.896053L4.251 4.29302L0.853542 0.895794Z"
    fill="currentColor"
  />
</svg>