<svg width="61" height="48" viewBox="0 0 61 48" fill="none" xmlns="http://www.w3.org/2000/svg">
<g clip-path="url(#clip0_842_2018)">
<path d="M37.079 0.112539C35.4743 -0.346836 33.8035 0.581289 33.3409 2.17504L21.2582 44.175C20.7956 45.7688 21.7302 47.4282 23.3349 47.8875C24.9397 48.3469 26.6105 47.4188 27.073 45.825L39.1558 3.82504C39.6183 2.23129 38.6838 0.571914 37.079 0.112539ZM44.6874 11.3719C43.5075 12.5438 43.5075 14.4469 44.6874 15.6188L53.117 24L44.678 32.3813C43.498 33.5532 43.498 35.4563 44.678 36.6282C45.8579 37.8 47.7742 37.8 48.9541 36.6282L59.5265 26.1282C60.7065 24.9563 60.7065 23.0532 59.5265 21.8813L48.9541 11.3813C47.7742 10.2094 45.8579 10.2094 44.678 11.3813L44.6874 11.3719ZM15.736 11.3719C14.556 10.2 12.6398 10.2 11.4598 11.3719L0.887409 21.8719C-0.292548 23.0438 -0.292548 24.9469 0.887409 26.1188L11.4598 36.6188C12.6398 37.7907 14.556 37.7907 15.736 36.6188C16.9159 35.4469 16.9159 33.5438 15.736 32.3719L7.29694 24L15.736 15.6188C16.9159 14.4469 16.9159 12.5438 15.736 11.3719Z" fill="#E1C190"/>
</g>
<defs>
<clipPath id="clip0_842_2018">
<rect width="60.4138" height="48" fill="white"/>
</clipPath>
</defs>
</svg>
