<svg width="16" height="16" viewBox="0 0 16 16" fill="none" xmlns="http://www.w3.org/2000/svg">
<path d="M5.90959 8.01414L5.90959 6.41707L13.2206 6.41707C13.3157 6.41707 13.3935 6.33927 13.3935 6.24418L13.3935 4.94751C13.3935 4.85242 13.3157 4.77462 13.2206 4.77462L5.90959 4.77462L5.90959 3.17323C5.90959 3.02844 5.74318 2.94848 5.6308 3.03708L2.56634 5.45754C2.54567 5.47371 2.52896 5.49437 2.51747 5.51796C2.50597 5.54155 2.5 5.56745 2.5 5.59369C2.5 5.61993 2.50597 5.64582 2.51747 5.66941C2.52896 5.693 2.54567 5.71366 2.56634 5.72984L5.62864 8.15029C5.74318 8.2389 5.90959 8.15893 5.90959 8.01414Z" fill="white" fill-opacity="0.85"/>
<path d="M10.5904 7.92226L10.5904 9.51933L3.27935 9.51933C3.18426 9.51933 3.10646 9.59713 3.10646 9.69222L3.10646 10.9889C3.10646 11.084 3.18426 11.1618 3.27935 11.1618L10.5904 11.1618L10.5904 12.7632C10.5904 12.908 10.7568 12.9879 10.8692 12.8993L13.9337 10.4789C13.9543 10.4627 13.971 10.442 13.9825 10.4184C13.994 10.3949 14 10.369 14 10.3427C14 10.3165 13.994 10.2906 13.9825 10.267C13.971 10.2434 13.9543 10.2227 13.9337 10.2066L10.8714 7.78611C10.7568 7.69751 10.5904 7.77747 10.5904 7.92226Z" fill="white" fill-opacity="0.85"/>
</svg>
