<svg width="16" height="17" viewBox="0 0 16 17" fill="none" xmlns="http://www.w3.org/2000/svg">
<g clip-path="url(#clip0_1406_320)">
<path d="M15.3712 10.5329L14.2016 9.53291C14.257 9.19363 14.2855 8.8472 14.2855 8.50077C14.2855 8.15434 14.257 7.80791 14.2016 7.46863L15.3712 6.46863C15.4595 6.3931 15.5226 6.29251 15.5523 6.18023C15.5819 6.06795 15.5767 5.9493 15.5373 5.84006L15.5212 5.79363C15.1992 4.89367 14.7171 4.05941 14.098 3.33113L14.0659 3.29363C13.9908 3.20533 13.8907 3.14185 13.7788 3.11157C13.6669 3.08129 13.5485 3.08562 13.4391 3.12399L11.9873 3.64006C11.4516 3.20077 10.8534 2.85434 10.207 2.61149L9.92659 1.09363C9.90544 0.979418 9.85004 0.874347 9.76775 0.792374C9.68546 0.710401 9.58017 0.655408 9.46588 0.634699L9.41767 0.625771C8.48731 0.457914 7.50874 0.457914 6.57838 0.625771L6.53017 0.634699C6.41587 0.655408 6.31059 0.710401 6.2283 0.792374C6.146 0.874347 6.0906 0.979418 6.06945 1.09363L5.78731 2.61863C5.14604 2.86154 4.54886 3.20778 4.01945 3.64363L2.55695 3.12399C2.4476 3.08531 2.32908 3.08083 2.21712 3.11113C2.10516 3.14143 2.00508 3.20508 1.93017 3.29363L1.89802 3.33113C1.27971 4.05992 0.797622 4.89405 0.474808 5.79363L0.458737 5.84006C0.37838 6.06327 0.444451 6.31327 0.624808 6.46863L1.80874 7.47934C1.75338 7.81506 1.72659 8.15791 1.72659 8.49899C1.72659 8.84184 1.75338 9.1847 1.80874 9.51863L0.624808 10.5293C0.536586 10.6049 0.473445 10.7055 0.44378 10.8177C0.414115 10.93 0.419331 11.0487 0.458737 11.1579L0.474808 11.2043C0.798023 12.1043 1.27659 12.9347 1.89802 13.6668L1.93017 13.7043C2.00526 13.7926 2.10535 13.8561 2.21724 13.8864C2.32913 13.9167 2.44757 13.9124 2.55695 13.874L4.01945 13.3543C4.55159 13.7918 5.14624 14.1383 5.78731 14.3793L6.06945 15.9043C6.0906 16.0186 6.146 16.1236 6.2283 16.2056C6.31059 16.2876 6.41587 16.3426 6.53017 16.3633L6.57838 16.3722C7.51728 16.541 8.47876 16.541 9.41767 16.3722L9.46588 16.3633C9.58017 16.3426 9.68546 16.2876 9.76775 16.2056C9.85004 16.1236 9.90544 16.0186 9.92659 15.9043L10.207 14.3865C10.8531 14.1443 11.4547 13.7967 11.9873 13.3579L13.4391 13.874C13.5484 13.9127 13.667 13.9171 13.7789 13.8868C13.8909 13.8565 13.991 13.7929 14.0659 13.7043L14.098 13.6668C14.7194 12.9329 15.198 12.1043 15.5212 11.2043L15.5373 11.1579C15.6177 10.9383 15.5516 10.6883 15.3712 10.5329ZM12.9337 7.67934C12.9784 7.94899 13.0016 8.22577 13.0016 8.50256C13.0016 8.77934 12.9784 9.05613 12.9337 9.32577L12.8159 10.0418L14.1498 11.1829C13.9476 11.6488 13.6923 12.0898 13.3891 12.4972L11.732 11.9097L11.1712 12.3704C10.7444 12.7204 10.2695 12.9954 9.75516 13.1883L9.07481 13.4436L8.75516 15.1758C8.25083 15.2329 7.74165 15.2329 7.23731 15.1758L6.91767 13.4401L6.24267 13.1811C5.73374 12.9883 5.26052 12.7133 4.83731 12.3651L4.27659 11.9026L2.60874 12.4954C2.30517 12.0865 2.05159 11.6454 1.84802 11.1811L3.19624 10.0293L3.08017 9.31506C3.03731 9.04899 3.01409 8.77398 3.01409 8.50256C3.01409 8.22934 3.03552 7.95613 3.08017 7.69006L3.19624 6.97577L1.84802 5.82399C2.04981 5.35791 2.30517 4.91863 2.60874 4.5097L4.27659 5.10256L4.83731 4.64006C5.26052 4.29184 5.73374 4.01684 6.24267 3.82399L6.91945 3.56863L7.23909 1.83291C7.74088 1.77577 8.25338 1.77577 8.75695 1.83291L9.07659 3.56506L9.75695 3.82041C10.2695 4.01327 10.7462 4.28827 11.173 4.63827L11.7337 5.09899L13.3909 4.51149C13.6945 4.92041 13.948 5.36149 14.1516 5.82577L12.8177 6.96684L12.9337 7.67934ZM7.99981 5.18113C6.26409 5.18113 4.85695 6.58827 4.85695 8.32399C4.85695 10.0597 6.26409 11.4668 7.99981 11.4668C9.73552 11.4668 11.1427 10.0597 11.1427 8.32399C11.1427 6.58827 9.73552 5.18113 7.99981 5.18113ZM9.41409 9.73827C9.2286 9.9243 9.00815 10.0718 8.76543 10.1723C8.52271 10.2729 8.26252 10.3244 7.99981 10.324C7.46588 10.324 6.96409 10.1151 6.58552 9.73827C6.39949 9.55278 6.25198 9.33233 6.15146 9.08961C6.05094 8.84689 5.9994 8.58669 5.99981 8.32399C5.99981 7.79006 6.20874 7.28827 6.58552 6.9097C6.96409 6.53113 7.46588 6.32399 7.99981 6.32399C8.53374 6.32399 9.03552 6.53113 9.41409 6.9097C9.60012 7.0952 9.74764 7.31564 9.84816 7.55836C9.94868 7.80108 10.0002 8.06128 9.99981 8.32399C9.99981 8.85791 9.79088 9.3597 9.41409 9.73827Z" fill="white"/>
</g>
<defs>
<clipPath id="clip0_1406_320">
<rect width="16" height="16" fill="white" transform="translate(0 0.5)"/>
</clipPath>
</defs>
</svg>
