<svg width="16" height="16" viewBox="0 0 16 16" fill="none" xmlns="http://www.w3.org/2000/svg">
<g clip-path="url(#clip0_752_5957)">
<path d="M10.0331 0.91394C9.92774 0.91394 9.82059 0.942512 9.72238 1.00858L3.39202 5.14608H0.463449C0.306306 5.14608 0.177734 5.27465 0.177734 5.4318V10.5747C0.177734 10.7318 0.306306 10.8604 0.463449 10.8604H3.39202L9.72238 14.9979C9.82059 15.0622 9.92952 15.0925 10.0331 15.0925C10.3313 15.0925 10.6063 14.855 10.6063 14.5193V1.48715C10.6063 1.15144 10.3313 0.91394 10.0331 0.91394ZM9.32059 13.1997L4.09559 9.78358L3.77416 9.57466H1.46345V6.4318H3.77416L4.09381 6.22287L9.32059 2.8068V13.1997ZM15.5349 7.36037H13.2492C13.092 7.36037 12.9634 7.48894 12.9634 7.64608V8.36037C12.9634 8.51751 13.092 8.64608 13.2492 8.64608H15.5349C15.692 8.64608 15.8206 8.51751 15.8206 8.36037V7.64608C15.8206 7.48894 15.692 7.36037 15.5349 7.36037ZM14.7867 12.0354L12.817 10.8979C12.7847 10.8793 12.749 10.8674 12.712 10.8626C12.675 10.8579 12.6374 10.8605 12.6014 10.8703C12.5655 10.8801 12.5318 10.8968 12.5023 10.9197C12.4728 10.9425 12.448 10.9709 12.4295 11.0032L12.0742 11.6193C11.9956 11.755 12.042 11.93 12.1777 12.0086L14.1474 13.1461C14.1797 13.1646 14.2154 13.1766 14.2524 13.1813C14.2894 13.1861 14.327 13.1835 14.363 13.1737C14.3989 13.1639 14.4326 13.1471 14.4621 13.1243C14.4916 13.1015 14.5164 13.0731 14.5349 13.0407L14.8902 12.4247C14.9688 12.2889 14.9206 12.1139 14.7867 12.0354ZM12.4277 5.00323C12.4463 5.03559 12.471 5.06399 12.5005 5.0868C12.53 5.10961 12.5637 5.12638 12.5997 5.13617C12.6356 5.14595 12.6732 5.14855 12.7102 5.14382C12.7472 5.13909 12.7829 5.12711 12.8152 5.10858L14.7849 3.97108C14.9206 3.89251 14.967 3.71751 14.8884 3.5818L14.5349 2.96751C14.5164 2.93515 14.4916 2.90675 14.4621 2.88394C14.4326 2.86113 14.3989 2.84435 14.363 2.83457C14.327 2.82479 14.2894 2.82219 14.2524 2.82692C14.2154 2.83165 14.1797 2.84363 14.1474 2.86215L12.1777 3.99965C12.1125 4.03767 12.065 4.09997 12.0456 4.17292C12.0262 4.24587 12.0365 4.32354 12.0742 4.38894L12.4277 5.00323Z" fill="#7685F7"/>
</g>
<defs>
<clipPath id="clip0_752_5957">
<rect width="16" height="16" fill="white"/>
</clipPath>
</defs>
</svg>
